<?xml version="1.0" encoding="UTF-8"?>
<svg id="flipSprite" xmlns="http://www.w3.org/2000/svg">
    <defs>
        <style>.cls-1{fill:#1a1a1a;}.cls-1,.cls-2{stroke-width:0px;}.cls-2{fill:#cecece;}</style>
    </defs>

    <symbol id="u">
        <path class="cls-1"
              d="M30.02,420H4.98c-2.75,0-4.98,2.23-4.98,4.98v40.04c0,2.75,2.23,4.98,4.98,4.98h25.04c2.75,0,4.98-2.23,4.98-4.98v-40.04c0-2.75-2.23-4.98-4.98-4.98ZM24.03,459.64h-5.57v-.76c-.72.72-1.87,1.07-3.45,1.07-1.1,0-2.05-.29-2.85-.87-.8-.58-1.2-1.34-1.2-2.28v-19.84h5.57v18.44c0,.69.33,1.04.98,1.04s.96-.33.96-1v-18.48h5.57v22.68Z"/>
        <path class="cls-2"
              d="M18.47,455.44c0,.66-.32,1-.96,1s-.98-.34-.98-1.04v-18.44h-5.57v19.84c0,.94.4,1.7,1.2,2.28.8.58,1.75.87,2.85.87,1.58,0,2.73-.36,3.45-1.07v.76h5.57v-22.68h-5.57v18.48Z"/>
    </symbol>
    <symbol id="v">
        <path class="cls-1"
              d="M70.02,420h-25.04c-2.75,0-4.98,2.23-4.98,4.98v40.04c0,2.75,2.23,4.98,4.98,4.98h25.04c2.75,0,4.98-2.23,4.98-4.98v-40.04c0-2.75-2.23-4.98-4.98-4.98ZM60.87,459.64h-6.71l-4.1-22.68h5.6l1.92,13.4,1.87-13.4h5.5l-4.07,22.68Z"/>
        <polygon class="cls-2"
                 points="57.58 450.36 55.65 436.96 50.06 436.96 54.16 459.64 60.87 459.64 64.94 436.96 59.44 436.96 57.58 450.36"/>
    </symbol>
    <symbol id="w">
        <path class="cls-1"
              d="M110.02,420h-25.04c-2.75,0-4.98,2.23-4.98,4.98v40.04c0,2.75,2.23,4.98,4.98,4.98h25.04c2.75,0,4.98-2.23,4.98-4.98v-40.04c0-2.75-2.23-4.98-4.98-4.98ZM105.42,459.64h-6.11l-1.74-9.28-1.58,9.28h-6.41l-3.89-22.68h5.37l1.91,12.32,1.72-12.32h5.61l1.72,12.32,1.91-12.32h5.37l-3.89,22.68Z"/>
        <polygon class="cls-2"
                 points="102.02 449.29 100.3 436.96 94.7 436.96 92.98 449.29 91.06 436.96 85.69 436.96 89.58 459.64 95.99 459.64 97.57 450.36 99.31 459.64 105.42 459.64 109.31 436.96 103.94 436.96 102.02 449.29"/>
    </symbol>
    <symbol id="x">
        <path class="cls-1"
              d="M150.02,420h-25.04c-2.75,0-4.98,2.23-4.98,4.98v40.04c0,2.75,2.23,4.98,4.98,4.98h25.04c2.75,0,4.98-2.23,4.98-4.98v-40.04c0-2.75-2.23-4.98-4.98-4.98ZM139.07,459.64l-1.91-6.15-1.8,6.15h-5.57l4.36-11.99-4.24-10.68h5.88l1.89,5.88,1.5-5.88h5.29l-3.73,10.96,4.45,11.72h-6.13Z"/>
        <polygon class="cls-2"
                 points="144.48 436.96 139.19 436.96 137.69 442.84 135.79 436.96 129.91 436.96 134.15 447.65 129.79 459.64 135.36 459.64 137.16 453.49 139.07 459.64 145.21 459.64 140.75 447.92 144.48 436.96"/>
    </symbol>
    <symbol id="y">
        <path class="cls-1"
              d="M190.02,420h-25.04c-2.75,0-4.98,2.23-4.98,4.98v40.04c0,2.75,2.23,4.98,4.98,4.98h25.04c2.75,0,4.98-2.23,4.98-4.98v-40.04c0-2.75-2.23-4.98-4.98-4.98ZM180.75,459.52c-.44,2.3-1.04,3.7-1.79,4.19-.75.49-1.79.73-3.12.73h-3.89v-3.05c1.46,0,2.36-.07,2.71-.21.35-.14.53-.57.53-1.27s-.8-4.37-2.4-11l-2.89-11.95h5.57l2.32,11.98,1.83-11.98h5.43l-4.32,22.56Z"/>
        <path class="cls-2"
              d="M177.81,448.94l-2.32-11.98h-5.57l2.89,11.95c1.6,6.63,2.4,10.29,2.4,11s-.18,1.13-.53,1.27c-.35.14-1.26.21-2.71.21v3.05h3.89c1.33,0,2.37-.24,3.12-.73.75-.49,1.34-1.88,1.79-4.19l4.32-22.56h-5.43l-1.83,11.98Z"/>
    </symbol>
    <symbol id="z">
        <path class="cls-1"
              d="M230.02,420h-25.04c-2.75,0-4.98,2.23-4.98,4.98v40.04c0,2.75,2.23,4.98,4.98,4.98h25.04c2.75,0,4.98-2.23,4.98-4.98v-40.04c0-2.75-2.23-4.98-4.98-4.98ZM224.27,459.64h-13.36v-3.12l6.31-15.92h-5.96v-3.63h12.4v3.07l-6.41,16.02h7.02v3.59Z"/>
        <polygon class="cls-2"
                 points="223.66 440.03 223.66 436.96 211.26 436.96 211.26 440.6 217.22 440.6 210.91 456.52 210.91 459.64 224.27 459.64 224.27 456.05 217.25 456.05 223.66 440.03"/>
    </symbol>
    <symbol id="k">
        <path class="cls-1"
              d="M30.02,360H4.98c-2.75,0-4.98,2.23-4.98,4.98v40.04c0,2.75,2.23,4.98,4.98,4.98h25.04c2.75,0,4.98-2.23,4.98-4.98v-40.04c0-2.75-2.23-4.98-4.98-4.98ZM18.92,399.64l-3.39-8.19v8.19h-5.57v-28.01h5.57v12.57l2.84-7.24h5.76l-4.03,9.92,5.38,12.75h-6.55Z"/>
        <polygon class="cls-2"
                 points="24.12 376.96 18.37 376.96 15.53 384.21 15.53 371.63 9.96 371.63 9.96 399.64 15.53 399.64 15.53 391.45 18.92 399.64 25.47 399.64 20.09 386.89 24.12 376.96"/>
    </symbol>
    <symbol id="l">
        <path class="cls-1"
              d="M70.02,360h-25.04c-2.75,0-4.98,2.23-4.98,4.98v40.04c0,2.75,2.23,4.98,4.98,4.98h25.04c2.75,0,4.98-2.23,4.98-4.98v-40.04c0-2.75-2.23-4.98-4.98-4.98ZM60.29,399.64h-5.57v-28.01h5.57v28.01Z"/>
        <rect class="cls-2" x="54.73" y="371.63" width="5.57" height="28.01"/>
    </symbol>
    <symbol id="m">
        <path class="cls-1"
              d="M110.02,360h-25.04c-2.75,0-4.98,2.23-4.98,4.98v40.04c0,2.75,2.23,4.98,4.98,4.98h25.04c2.75,0,4.98-2.23,4.98-4.98v-40.04c0-2.75-2.23-4.98-4.98-4.98ZM107.77,399.64h-5.57v-18.12c0-.69-.32-1.04-.95-1.04s-.97.33-.97,1v18.16h-5.57v-18.16c0-.69-.32-1.04-.95-1.04s-.97.33-.97,1v18.2h-5.57v-22.68h5.57v.8c.77-.64,1.92-.96,3.46-.96,1.29,0,2.46.51,3.51,1.54.98-1.03,2.31-1.54,4-1.54.96,0,1.87.29,2.72.87.85.58,1.27,1.38,1.27,2.41v19.55Z"/>
        <path class="cls-2"
              d="M106.5,377.68c-.85-.58-1.75-.87-2.72-.87-1.69,0-3.03.51-4,1.54-1.05-1.03-2.23-1.54-3.51-1.54-1.54,0-2.69.32-3.46.96v-.8h-5.57v22.68h5.57v-18.2c0-.66.32-1,.97-1s.95.35.95,1.04v18.16h5.57v-18.16c0-.66.32-1,.97-1s.95.35.95,1.04v18.12h5.57v-19.55c0-1.03-.42-1.83-1.27-2.41Z"/>
    </symbol>
    <symbol id="n">
        <path class="cls-1"
              d="M150.02,360h-25.04c-2.75,0-4.98,2.23-4.98,4.98v40.04c0,2.75,2.23,4.98,4.98,4.98h25.04c2.75,0,4.98-2.23,4.98-4.98v-40.04c0-2.75-2.23-4.98-4.98-4.98ZM144.03,399.64h-5.57v-18.2c0-.69-.32-1.04-.97-1.04s-.97.33-.97,1v18.24h-5.57v-22.68h5.57v.76c.74-.61,1.89-.92,3.45-.92,1.01,0,1.93.27,2.78.82s1.27,1.35,1.27,2.4v19.61Z"/>
        <path class="cls-2"
              d="M142.76,377.63c-.85-.55-1.78-.82-2.78-.82-1.55,0-2.7.31-3.45.92v-.76h-5.57v22.68h5.57v-18.24c0-.66.32-1,.97-1s.97.35.97,1.04v18.2h5.57v-19.61c0-1.05-.42-1.86-1.27-2.4Z"/>
    </symbol>
    <symbol id="o">
        <path class="cls-1"
              d="M190.02,360h-25.04c-2.75,0-4.98,2.23-4.98,4.98v40.04c0,2.75,2.23,4.98,4.98,4.98h25.04c2.75,0,4.98-2.23,4.98-4.98v-40.04c0-2.75-2.23-4.98-4.98-4.98ZM184.03,395.36c0,3.06-2.15,4.59-6.45,4.59s-6.62-1.59-6.62-4.79v-13.57c0-3.19,2.21-4.79,6.62-4.79,1.71,0,3.21.37,4.5,1.11,1.3.74,1.94,1.9,1.94,3.48v13.96Z"/>
        <path class="cls-1"
              d="M177.51,380.32c-.65,0-.98.37-.98,1.11v13.89c0,.77.33,1.15.98,1.15s.96-.38.96-1.15v-13.89c0-.74-.32-1.11-.96-1.11Z"/>
        <path class="cls-2"
              d="M182.09,377.92c-1.3-.74-2.8-1.11-4.5-1.11-4.41,0-6.62,1.6-6.62,4.79v13.57c0,3.19,2.21,4.79,6.62,4.79s6.45-1.53,6.45-4.59v-13.96c0-1.58-.65-2.73-1.94-3.48ZM178.47,395.32c0,.77-.32,1.15-.96,1.15s-.98-.38-.98-1.15v-13.89c0-.74.33-1.11.98-1.11s.96.37.96,1.11v13.89Z"/>
    </symbol>
    <symbol id="p">
        <path class="cls-1"
              d="M230.02,360h-25.04c-2.75,0-4.98,2.23-4.98,4.98v40.04c0,2.75,2.23,4.98,4.98,4.98h25.04c2.75,0,4.98-2.23,4.98-4.98v-40.04c0-2.75-2.23-4.98-4.98-4.98ZM224.03,396.81c0,.95-.39,1.71-1.17,2.29-.78.57-1.74.86-2.86.86-1.55,0-2.71-.28-3.47-.84v5.33h-5.57v-27.48h4.21l.47.92c.91-.72,2-1.07,3.25-1.07s2.44.32,3.52.96c1.08.64,1.62,1.56,1.62,2.75v16.29Z"/>
        <path class="cls-1"
              d="M217.51,380.32c-.65,0-.98.35-.98,1.04v14.08c0,.66.33,1,.98,1s.96-.34.96-1.04v-14.04c0-.69-.32-1.04-.96-1.04Z"/>
        <path class="cls-2"
              d="M222.42,377.77c-1.08-.64-2.25-.96-3.52-.96s-2.34.36-3.25,1.07l-.47-.92h-4.21v27.48h5.57v-5.33c.76.56,1.91.84,3.47.84,1.12,0,2.08-.29,2.86-.86.78-.57,1.17-1.33,1.17-2.29v-16.29c0-1.2-.54-2.12-1.62-2.75ZM218.47,395.4c0,.69-.32,1.04-.96,1.04s-.98-.33-.98-1v-14.08c0-.69.33-1.04.98-1.04s.96.35.96,1.04v14.04Z"/>
    </symbol>
    <symbol id="q">
        <path class="cls-1"
              d="M270.02,360h-25.04c-2.75,0-4.98,2.23-4.98,4.98v40.04c0,2.75,2.23,4.98,4.98,4.98h25.04c2.75,0,4.98-2.23,4.98-4.98v-40.04c0-2.75-2.23-4.98-4.98-4.98ZM264.03,404.44h-5.57v-5.33c-.73.56-1.88.84-3.45.84-1.1,0-2.05-.29-2.85-.87-.8-.58-1.2-1.34-1.2-2.28v-16.29c0-1.15.5-2.05,1.51-2.71s2.21-1,3.62-1c1.12,0,2.21.36,3.25,1.07l.47-.92h4.21v27.48Z"/>
        <path class="cls-1"
              d="M257.51,380.32c-.65,0-.98.35-.98,1.04v14.04c0,.69.33,1.04.98,1.04s.96-.33.96-1v-14.08c0-.69-.32-1.04-.96-1.04Z"/>
        <path class="cls-2"
              d="M259.35,377.88c-1.04-.72-2.13-1.07-3.25-1.07-1.41,0-2.62.33-3.62,1s-1.51,1.57-1.51,2.71v16.29c0,.94.4,1.7,1.2,2.28.8.58,1.75.87,2.85.87,1.57,0,2.71-.28,3.45-.84v5.33h5.57v-27.48h-4.21l-.47.92ZM258.47,395.44c0,.66-.32,1-.96,1s-.98-.34-.98-1.04v-14.04c0-.69.33-1.04.98-1.04s.96.35.96,1.04v14.08Z"/>
    </symbol>
    <symbol id="r">
        <path class="cls-1"
              d="M310.02,360h-25.04c-2.75,0-4.98,2.23-4.98,4.98v40.04c0,2.75,2.23,4.98,4.98,4.98h25.04c2.75,0,4.98-2.23,4.98-4.98v-40.04c0-2.75-2.23-4.98-4.98-4.98ZM304.19,386.36h-5.57v-4.92c0-.69-.32-1.04-.96-1.04s-.96.33-.96,1v18.24h-5.57v-22.68h5.57v.76c.74-.61,1.89-.92,3.44-.92,1.11,0,2.06.3,2.85.89.79.59,1.19,1.37,1.19,2.33v6.33Z"/>
        <path class="cls-2"
              d="M303,377.7c-.79-.59-1.75-.89-2.85-.89-1.55,0-2.7.31-3.44.92v-.76h-5.57v22.68h5.57v-18.24c0-.66.32-1,.96-1s.96.35.96,1.04v4.92h5.57v-6.33c0-.96-.4-1.74-1.19-2.33Z"/>
    </symbol>
    <symbol id="s">
        <path class="cls-1"
              d="M350.02,360h-25.04c-2.75,0-4.98,2.23-4.98,4.98v40.04c0,2.75,2.23,4.98,4.98,4.98h25.04c2.75,0,4.98-2.23,4.98-4.98v-40.04c0-2.75-2.23-4.98-4.98-4.98ZM344.05,395.17c0,3.19-2.2,4.79-6.59,4.79s-6.46-1.53-6.46-4.59v-4.84h5.57v4.8c0,.77.31,1.15.94,1.15s.94-.74.94-2.21c0-1.91-.38-3.15-1.15-3.71-2.9-1.52-4.66-2.59-5.25-3.19-.6-.61-.9-1.51-.9-2.72v-3.05c0-3.19,2.16-4.79,6.48-4.79s6.31,1.53,6.31,4.59v4.47h-5.43l.12-2.71c0-1.89-.35-2.83-1.04-2.83s-1.04.59-1.04,1.78.15,2.15.46,2.77c.31.62,2.01,1.7,5.11,3.22,1.29.92,1.93,2.15,1.93,3.67v3.4Z"/>
        <path class="cls-2"
              d="M342.12,388.1c-3.1-1.52-4.8-2.6-5.11-3.22-.31-.62-.46-1.55-.46-2.77s.34-1.78,1.04-1.78,1.04.94,1.04,2.83l-.12,2.71h5.43v-4.47c0-3.06-2.1-4.59-6.31-4.59s-6.48,1.6-6.48,4.79v3.05c0,1.21.3,2.12.9,2.72.6.61,2.35,1.67,5.25,3.19.77.56,1.15,1.8,1.15,3.71,0,1.47-.31,2.21-.94,2.21s-.94-.38-.94-1.15v-4.8h-5.57v4.84c0,3.06,2.15,4.59,6.46,4.59s6.59-1.59,6.59-4.79v-3.4c0-1.52-.64-2.75-1.93-3.67Z"/>
    </symbol>
    <symbol id="t">
        <path class="cls-1"
              d="M390.02,360h-25.04c-2.75,0-4.98,2.23-4.98,4.98v40.04c0,2.75,2.23,4.98,4.98,4.98h25.04c2.75,0,4.98-2.23,4.98-4.98v-40.04c0-2.75-2.23-4.98-4.98-4.98ZM383.11,399.64h-3.52c-2.51,0-4.02-.38-4.51-1.13-.5-.75-.74-2.21-.74-4.36v-13.83h-2.48v-3.36h2.48v-4.57h5.57v4.57h3.01v3.36h-3.01v13.79c0,.66.2,1.11.6,1.34.4.23,1.27.34,2.61.34v3.85Z"/>
        <path class="cls-2"
              d="M379.9,394.11v-13.79h3.01v-3.36h-3.01v-4.57h-5.57v4.57h-2.48v3.36h2.48v13.83c0,2.15.25,3.6.74,4.36.49.76,2,1.13,4.51,1.13h3.52v-3.85c-1.34,0-2.21-.11-2.61-.34-.4-.23-.6-.67-.6-1.34Z"/>
    </symbol>
    <symbol id="a">
        <path class="cls-1"
              d="M30.02,300H4.98c-2.75,0-4.98,2.23-4.98,4.98v40.04c0,2.75,2.23,4.98,4.98,4.98h25.04c2.75,0,4.98-2.23,4.98-4.98v-40.04c0-2.75-2.23-4.98-4.98-4.98ZM24.03,339.64h-4.92v-.88c-.42.79-1.61,1.19-3.57,1.19-3.03,0-4.55-1.18-4.55-3.55v-4.55c0-1.02.37-1.9,1.1-2.66.74-.75,2.22-1.7,4.44-2.83,1.29-.65,1.93-1.17,1.93-1.56v-3.36c0-.74-.32-1.11-.96-1.11-.73,0-1.09.91-1.09,2.71,0,.33.02.81.06,1.45.05.64.08,1.12.08,1.45h-5.37v-4.53c0-3.06,2.21-4.59,6.64-4.59,4.14,0,6.21,1.6,6.21,4.79v18.05Z"/>
        <path class="cls-1"
              d="M16.55,331.28v4.12c0,.69.33,1.04,1,1.04.61,0,.92-.34.92-1.04v-5.84c-1.28.31-1.91.89-1.91,1.72Z"/>
        <path class="cls-2"
              d="M17.82,316.81c-4.43,0-6.64,1.53-6.64,4.59v4.53h5.37c0-.33-.03-.81-.08-1.45-.04-.64-.06-1.12-.06-1.45,0-1.81.36-2.71,1.09-2.71.64,0,.96.37.96,1.11v3.36c0,.39-.64.91-1.93,1.56-2.23,1.13-3.71,2.08-4.44,2.83-.74.76-1.1,1.64-1.1,2.66v4.55c0,2.37,1.52,3.55,4.55,3.55,1.97,0,3.16-.4,3.57-1.19v.88h4.92v-18.05c0-3.19-2.07-4.79-6.21-4.79ZM18.47,335.4c0,.69-.31,1.04-.92,1.04-.66,0-1-.34-1-1.04v-4.12c0-.83.64-1.41,1.91-1.72v5.84Z"/>
    </symbol>
    <symbol id="b">
        <path class="cls-1"
              d="M70.02,300h-25.04c-2.75,0-4.98,2.23-4.98,4.98v40.04c0,2.75,2.23,4.98,4.98,4.98h25.04c2.75,0,4.98-2.23,4.98-4.98v-40.04c0-2.75-2.23-4.98-4.98-4.98ZM64.03,336.24c0,1.15-.5,2.05-1.51,2.71s-2.21,1-3.62,1c-1.1,0-2.18-.36-3.25-1.07l-.47.76h-4.21v-28.01h5.57v6.02c.67-.56,1.82-.84,3.47-.84,1,0,1.93.27,2.77.81.84.54,1.26,1.32,1.26,2.33v16.29Z"/>
        <path class="cls-1"
              d="M57.51,320.32c-.65,0-.98.33-.98,1v14.08c0,.69.33,1.04.98,1.04s.96-.34.96-1.04v-14.04c0-.69-.32-1.04-.96-1.04Z"/>
        <path class="cls-2"
              d="M62.77,317.62c-.84-.54-1.77-.81-2.77-.81-1.65,0-2.8.28-3.47.84v-6.02h-5.57v28.01h4.21l.47-.76c1.07.72,2.15,1.07,3.25,1.07,1.41,0,2.62-.33,3.62-1s1.51-1.57,1.51-2.71v-16.29c0-1.02-.42-1.79-1.26-2.33ZM58.47,335.4c0,.69-.32,1.04-.96,1.04s-.98-.34-.98-1.04v-14.08c0-.66.33-1,.98-1s.96.35.96,1.04v14.04Z"/>
    </symbol>
    <symbol id="c">
        <path class="cls-1"
              d="M110.02,300h-25.04c-2.75,0-4.98,2.23-4.98,4.98v40.04c0,2.75,2.23,4.98,4.98,4.98h25.04c2.75,0,4.98-2.23,4.98-4.98v-40.04c0-2.75-2.23-4.98-4.98-4.98ZM104.01,327h-5.57v-5.57c0-.74-.31-1.11-.94-1.11s-.96.37-.96,1.11v13.89c0,.77.32,1.15.96,1.15s.94-.38.94-1.15v-5.49h5.57v5.53c0,3.06-2.14,4.59-6.43,4.59s-6.6-1.59-6.6-4.79v-13.57c0-3.19,2.2-4.79,6.6-4.79s6.43,1.53,6.43,4.59v5.61Z"/>
        <path class="cls-2"
              d="M97.59,316.81c-4.4,0-6.6,1.6-6.6,4.79v13.57c0,3.19,2.2,4.79,6.6,4.79s6.43-1.53,6.43-4.59v-5.53h-5.57v5.49c0,.77-.31,1.15-.94,1.15s-.96-.38-.96-1.15v-13.89c0-.74.32-1.11.96-1.11s.94.37.94,1.11v5.57h5.57v-5.61c0-3.06-2.14-4.59-6.43-4.59Z"/>
    </symbol>
    <symbol id="d">
        <path class="cls-1"
              d="M137.51,320.32c-.65,0-.98.35-.98,1.04v14.04c0,.69.33,1.04.98,1.04s.96-.34.96-1.04v-14.08c0-.66-.32-1-.96-1Z"/>
        <path class="cls-1"
              d="M150.02,300h-25.04c-2.75,0-4.98,2.23-4.98,4.98v40.04c0,2.75,2.23,4.98,4.98,4.98h25.04c2.75,0,4.98-2.23,4.98-4.98v-40.04c0-2.75-2.23-4.98-4.98-4.98ZM144.03,339.64h-4.21l-.47-.76c-.95.72-2.04,1.07-3.25,1.07-1.42,0-2.63-.33-3.63-1-1-.66-1.5-1.57-1.5-2.71v-16.29c0-.96.4-1.73,1.18-2.29.79-.57,1.75-.85,2.87-.85,1.54,0,2.69.28,3.45.84v-6.02h5.57v28.01Z"/>
        <path class="cls-2"
              d="M138.47,317.65c-.76-.56-1.91-.84-3.45-.84-1.12,0-2.08.28-2.87.85-.79.57-1.18,1.33-1.18,2.29v16.29c0,1.15.5,2.05,1.5,2.71,1,.66,2.21,1,3.63,1,1.21,0,2.3-.36,3.25-1.07l.47.76h4.21v-28.01h-5.57v6.02ZM138.47,335.4c0,.69-.32,1.04-.96,1.04s-.98-.34-.98-1.04v-14.04c0-.69.33-1.04.98-1.04s.96.33.96,1v14.08Z"/>
    </symbol>
    <symbol id="e">
        <path class="cls-1"
              d="M190.02,300h-25.04c-2.75,0-4.98,2.23-4.98,4.98v40.04c0,2.75,2.23,4.98,4.98,4.98h25.04c2.75,0,4.98-2.23,4.98-4.98v-40.04c0-2.75-2.23-4.98-4.98-4.98ZM184.01,330.03h-7.46v5.29c0,.77.32,1.15.96,1.15s.94-.38.94-1.15v-4.57h5.57v4.61c0,3.06-2.18,4.59-6.54,4.59s-6.48-1.59-6.48-4.79v-13.57c0-3.19,2.16-4.79,6.48-4.79s6.54,1.53,6.54,4.59v8.63Z"/>
        <path class="cls-1" d="M177.51,320.32c-.64,0-.96.37-.96,1.11v5.2h1.89v-5.2c0-.74-.31-1.11-.94-1.11Z"/>
        <path class="cls-2"
              d="M177.47,316.81c-4.32,0-6.48,1.6-6.48,4.79v13.57c0,3.19,2.16,4.79,6.48,4.79s6.54-1.53,6.54-4.59v-4.61h-5.57v4.57c0,.77-.31,1.15-.94,1.15s-.96-.38-.96-1.15v-5.29h7.46v-8.63c0-3.06-2.18-4.59-6.54-4.59ZM178.45,326.63h-1.89v-5.2c0-.74.32-1.11.96-1.11s.94.37.94,1.11v5.2Z"/>
    </symbol>
    <symbol id="f">
        <path class="cls-1"
              d="M230.02,300h-25.04c-2.75,0-4.98,2.23-4.98,4.98v40.04c0,2.75,2.23,4.98,4.98,4.98h25.04c2.75,0,4.98-2.23,4.98-4.98v-40.04c0-2.75-2.23-4.98-4.98-4.98ZM223.02,314.68h-1.07c-.94,0-1.53.18-1.77.54-.23.36-.35.94-.35,1.75h3.18v3.36h-3.18v19.32h-5.57v-19.32h-1.88v-3.36h1.88c0-1.99.25-3.38.75-4.16.5-.78,2-1.17,4.48-1.17h3.52v3.05Z"/>
        <path class="cls-2"
              d="M215.02,312.8c-.5.78-.75,2.17-.75,4.16h-1.88v3.36h1.88v19.32h5.57v-19.32h3.18v-3.36h-3.18c0-.81.12-1.39.35-1.75.23-.36.82-.54,1.77-.54h1.07v-3.05h-3.52c-2.49,0-3.98.39-4.48,1.17Z"/>
    </symbol>
    <symbol id="g">
        <path class="cls-1"
              d="M270.02,300h-25.04c-2.75,0-4.98,2.23-4.98,4.98v40.04c0,2.75,2.23,4.98,4.98,4.98h25.04c2.75,0,4.98-2.23,4.98-4.98v-40.04c0-2.75-2.23-4.98-4.98-4.98ZM264.03,339.33c0,1.47-.29,2.69-.87,3.66-.58.97-2.39,1.46-5.42,1.46h-5.78v-3.28h4.52c1.32,0,1.98-.68,1.98-2.05-.73.56-1.88.84-3.45.84-1.1,0-2.05-.29-2.85-.87-.8-.58-1.2-1.34-1.2-2.28v-16.29c0-2.47,1.48-3.71,4.45-3.71.78,0,1.81.33,3.09,1l.73-.84h4.8v22.36Z"/>
        <path class="cls-1"
              d="M257.51,320.32c-.65,0-.98.35-.98,1.04v14.2c0,.69.33,1.04.98,1.04s.96-.33.96-1v-14.24c0-.69-.32-1.04-.96-1.04Z"/>
        <path class="cls-2"
              d="M258.51,317.8c-1.28-.66-2.31-1-3.09-1-2.96,0-4.45,1.24-4.45,3.71v16.29c0,.94.4,1.7,1.2,2.28.8.58,1.75.87,2.85.87,1.57,0,2.71-.28,3.45-.84,0,1.37-.66,2.05-1.98,2.05h-4.52v3.28h5.78c3.03,0,4.83-.49,5.42-1.46.58-.97.87-2.19.87-3.66v-22.36h-4.8l-.73.84ZM258.47,335.6c0,.66-.32,1-.96,1s-.98-.34-.98-1.04v-14.2c0-.69.33-1.04.98-1.04s.96.35.96,1.04v14.24Z"/>
    </symbol>
    <symbol id="h">
        <path class="cls-1"
              d="M310.02,300h-25.04c-2.75,0-4.98,2.23-4.98,4.98v40.04c0,2.75,2.23,4.98,4.98,4.98h25.04c2.75,0,4.98-2.23,4.98-4.98v-40.04c0-2.75-2.23-4.98-4.98-4.98ZM304.01,339.64h-5.57v-18.28c0-.69-.31-1.04-.94-1.04s-.96.33-.96,1v18.32h-5.57v-28.01h5.57v6.02c.66-.56,1.81-.84,3.45-.84,1.09,0,2.03.29,2.82.86.79.57,1.19,1.33,1.19,2.29v19.69Z"/>
        <path class="cls-2"
              d="M302.83,317.67c-.79-.57-1.73-.86-2.82-.86-1.64,0-2.79.28-3.45.84v-6.02h-5.57v28.01h5.57v-18.32c0-.66.32-1,.96-1s.94.35.94,1.04v18.28h5.57v-19.69c0-.95-.4-1.71-1.19-2.29Z"/>
    </symbol>
    <symbol id="i">
        <path class="cls-1"
              d="M350.02,300h-25.04c-2.75,0-4.98,2.23-4.98,4.98v40.04c0,2.75,2.23,4.98,4.98,4.98h25.04c2.75,0,4.98-2.23,4.98-4.98v-40.04c0-2.75-2.23-4.98-4.98-4.98ZM340.27,339.64h-5.57v-22.68h5.57v22.68ZM340.27,315.71h-5.57v-4.08h5.57v4.08Z"/>
        <rect class="cls-2" x="334.71" y="316.96" width="5.57" height="22.68"/>
        <rect class="cls-2" x="334.71" y="311.63" width="5.57" height="4.08"/>
    </symbol>
    <symbol id="j">
        <path class="cls-1"
              d="M390.02,300h-25.04c-2.75,0-4.98,2.23-4.98,4.98v40.04c0,2.75,2.23,4.98,4.98,4.98h25.04c2.75,0,4.98-2.23,4.98-4.98v-40.04c0-2.75-2.23-4.98-4.98-4.98ZM380.26,340.17c0,2.85-1.51,4.28-4.53,4.28h-4.16v-3.28c1.46,0,2.34-.07,2.66-.21.31-.14.47-.59.47-1.35v-22.64h5.57v23.2ZM380.26,315.71h-5.57v-4.08h5.57v4.08Z"/>
        <rect class="cls-2" x="374.7" y="311.63" width="5.57" height="4.08"/>
        <path class="cls-2"
              d="M374.7,339.6c0,.75-.16,1.2-.47,1.35-.31.14-1.2.21-2.66.21v3.28h4.16c3.02,0,4.53-1.43,4.53-4.28v-23.2h-5.57v22.64Z"/>
    </symbol>
    <symbol id="U">
        <path class="cls-1"
              d="M30.02,240H4.98c-2.75,0-4.98,2.23-4.98,4.98v40.04c0,2.75,2.23,4.98,4.98,4.98h25.04c2.75,0,4.98-2.23,4.98-4.98v-40.04c0-2.75-2.23-4.98-4.98-4.98ZM24.68,274.82c0,1.61-.67,2.86-2.01,3.75-1.34.89-3.06,1.33-5.16,1.33-1.94,0-3.62-.4-5.05-1.19-1.43-.79-2.14-2.08-2.14-3.85v-23.22h6.15v23.52c0,.56.34.84,1.04.84s1.02-.28,1.02-.84v-23.52h6.15v23.18Z"/>
        <path class="cls-2"
              d="M18.53,275.15c0,.56-.34.84-1.02.84s-1.04-.28-1.04-.84v-23.52h-6.15v23.22c0,1.77.71,3.05,2.14,3.85,1.43.79,3.11,1.19,5.05,1.19,2.1,0,3.81-.44,5.16-1.33,1.34-.89,2.01-2.14,2.01-3.75v-23.18h-6.15v23.52Z"/>
    </symbol>
    <symbol id="V">
        <path class="cls-1"
              d="M70.02,240h-25.04c-2.75,0-4.98,2.23-4.98,4.98v40.04c0,2.75,2.23,4.98,4.98,4.98h25.04c2.75,0,4.98-2.23,4.98-4.98v-40.04c0-2.75-2.23-4.98-4.98-4.98ZM61.85,279.64h-8.7l-3.78-28.01h5.99l2.13,19.57,2.11-19.57h6.01l-3.77,28.01Z"/>
        <polygon class="cls-2"
                 points="57.5 271.2 55.37 251.63 49.38 251.63 53.16 279.64 61.85 279.64 65.62 251.63 59.61 251.63 57.5 271.2"/>
    </symbol>
    <symbol id="W">
        <path class="cls-1"
              d="M110.02,240h-25.04c-2.75,0-4.98,2.23-4.98,4.98v40.04c0,2.75,2.23,4.98,4.98,4.98h25.04c2.75,0,4.98-2.23,4.98-4.98v-40.04c0-2.75-2.23-4.98-4.98-4.98ZM106.41,279.64h-7.29l-2.21-15.45-2.08,15.45h-6.28l-3.48-28.01h5.53l1.55,12.93,2.12-12.93h6.93l1.68,12.93,2.07-12.93h5.04l-3.59,28.01Z"/>
        <polygon class="cls-2"
                 points="102.89 264.56 101.21 251.63 94.28 251.63 92.15 264.56 90.61 251.63 85.08 251.63 88.55 279.64 94.83 279.64 96.91 264.19 99.12 279.64 106.41 279.64 110 251.63 104.96 251.63 102.89 264.56"/>
    </symbol>
    <symbol id="X">
        <path class="cls-1"
              d="M150.02,240h-25.04c-2.75,0-4.98,2.23-4.98,4.98v40.04c0,2.75,2.23,4.98,4.98,4.98h25.04c2.75,0,4.98-2.23,4.98-4.98v-40.04c0-2.75-2.23-4.98-4.98-4.98ZM139.88,279.64l-2.81-9-2.64,9h-5.88l4.84-15.92-3.59-12.09h5.92l2.19,8.12,2.44-8.12h5.53l-4.2,12.97,4.8,15.04h-6.6Z"/>
        <polygon class="cls-2"
                 points="145.88 251.63 140.35 251.63 137.91 259.76 135.72 251.63 129.8 251.63 133.4 263.72 128.55 279.64 134.43 279.64 137.07 270.64 139.88 279.64 146.48 279.64 141.68 264.6 145.88 251.63"/>
    </symbol>
    <symbol id="Y">
        <path class="cls-1"
              d="M190.02,240h-25.04c-2.75,0-4.98,2.23-4.98,4.98v40.04c0,2.75,2.23,4.98,4.98,4.98h25.04c2.75,0,4.98-2.23,4.98-4.98v-40.04c0-2.75-2.23-4.98-4.98-4.98ZM182.16,262.92l-2.01,5.64v11.07h-6.15v-10.86c-.12-.99-.64-2.92-1.58-5.8-.81-2.43-1.99-6.22-3.55-11.35h5.87l2.77,9.93,3.15-9.93h5.54l-4.02,11.29Z"/>
        <path class="cls-2"
              d="M177.5,261.56l-2.77-9.93h-5.87c1.56,5.13,2.75,8.91,3.55,11.35.94,2.88,1.46,4.81,1.58,5.8v10.86h6.15v-11.07l2.01-5.64,4.02-11.29h-5.54l-3.15,9.93Z"/>
    </symbol>
    <symbol id="Z">
        <path class="cls-1"
              d="M230.02,240h-25.04c-2.75,0-4.98,2.23-4.98,4.98v40.04c0,2.75,2.23,4.98,4.98,4.98h25.04c2.75,0,4.98-2.23,4.98-4.98v-40.04c0-2.75-2.23-4.98-4.98-4.98ZM224.43,279.64h-13.89v-3.55l6.8-20.8h-6.39v-3.65h13.01v3.69l-6.75,20.72h7.22v3.59Z"/>
        <polygon class="cls-2"
                 points="223.96 255.32 223.96 251.63 210.96 251.63 210.96 255.28 217.34 255.28 210.55 276.09 210.55 279.64 224.43 279.64 224.43 276.05 217.22 276.05 223.96 255.32"/>
    </symbol>
    <symbol id="K">
        <path class="cls-1"
              d="M30.02,180H4.98c-2.75,0-4.98,2.23-4.98,4.98v40.04c0,2.75,2.23,4.98,4.98,4.98h25.04c2.75,0,4.98-2.23,4.98-4.98v-40.04c0-2.75-2.23-4.98-4.98-4.98ZM18.66,219.64l-2.36-10.37v10.37h-6.15v-28.01h6.15v9.36l2.69-9.36h5.7l-3.79,12.77,4.51,15.23h-6.76Z"/>
        <polygon class="cls-2"
                 points="24.7 191.63 18.99 191.63 16.3 200.99 16.3 191.63 10.15 191.63 10.15 219.64 16.3 219.64 16.3 209.27 18.66 219.64 25.42 219.64 20.91 204.41 24.7 191.63"/>
    </symbol>
    <symbol id="L">
        <path class="cls-1"
              d="M70.02,180h-25.04c-2.75,0-4.98,2.23-4.98,4.98v40.04c0,2.75,2.23,4.98,4.98,4.98h25.04c2.75,0,4.98-2.23,4.98-4.98v-40.04c0-2.75-2.23-4.98-4.98-4.98ZM63.51,219.64h-11.54v-28.01h6.15v24.41h5.39v3.59Z"/>
        <polygon class="cls-2"
                 points="58.12 191.63 51.96 191.63 51.96 219.64 63.51 219.64 63.51 216.05 58.12 216.05 58.12 191.63"/>
    </symbol>
    <symbol id="M">
        <path class="cls-1"
              d="M110.02,180h-25.04c-2.75,0-4.98,2.23-4.98,4.98v40.04c0,2.75,2.23,4.98,4.98,4.98h25.04c2.75,0,4.98-2.23,4.98-4.98v-40.04c0-2.75-2.23-4.98-4.98-4.98ZM108.21,219.64h-5.49v-15.72l-3.2,15.72h-4.24l-3.67-15.72v15.72h-4.8v-28.01h7.91l2.81,14.53,2.44-14.53h8.24v28.01Z"/>
        <polygon class="cls-2"
                 points="97.53 206.16 94.72 191.63 86.81 191.63 86.81 219.64 91.61 219.64 91.61 203.92 95.28 219.64 99.52 219.64 102.72 203.92 102.72 219.64 108.21 219.64 108.21 191.63 99.97 191.63 97.53 206.16"/>
    </symbol>
    <symbol id="N">
        <path class="cls-1"
              d="M150.02,180h-25.04c-2.75,0-4.98,2.23-4.98,4.98v40.04c0,2.75,2.23,4.98,4.98,4.98h25.04c2.75,0,4.98-2.23,4.98-4.98v-40.04c0-2.75-2.23-4.98-4.98-4.98ZM145.33,219.64h-6.33l-4.18-14.92v14.92h-5.14v-28.01h6.99l3.52,12.77v-12.77h5.14v28.01Z"/>
        <polygon class="cls-2"
                 points="140.2 204.41 136.68 191.63 129.69 191.63 129.69 219.64 134.82 219.64 134.82 204.72 139 219.64 145.33 219.64 145.33 191.63 140.2 191.63 140.2 204.41"/>
    </symbol>
    <symbol id="O">
        <path class="cls-1"
              d="M190.02,180h-25.04c-2.75,0-4.98,2.23-4.98,4.98v40.04c0,2.75,2.23,4.98,4.98,4.98h25.04c2.75,0,4.98-2.23,4.98-4.98v-40.04c0-2.75-2.23-4.98-4.98-4.98ZM184.51,214.82c0,1.63-.65,2.88-1.94,3.76-1.29.88-2.98,1.32-5.06,1.32-4.68,0-7.02-1.68-7.02-5.04v-18.03c0-3.63,2.35-5.45,7.06-5.45s6.96,1.8,6.96,5.41v18.03Z"/>
        <path class="cls-1"
              d="M177.52,195.23c-.69,0-1.04.28-1.04.84v19.08c0,.56.34.84,1.04.84s1-.28,1-.84v-19.08c0-.56-.33-.84-1-.84Z"/>
        <path class="cls-2"
              d="M177.55,191.38c-4.71,0-7.06,1.82-7.06,5.45v18.03c0,3.36,2.34,5.04,7.02,5.04,2.08,0,3.77-.44,5.06-1.32,1.29-.88,1.94-2.13,1.94-3.76v-18.03c0-3.61-2.32-5.41-6.96-5.41ZM178.52,215.15c0,.56-.33.84-1,.84s-1.04-.28-1.04-.84v-19.08c0-.56.34-.84,1.04-.84s1,.28,1,.84v19.08Z"/>
    </symbol>
    <symbol id="P">
        <path class="cls-1"
              d="M230.02,180h-25.04c-2.75,0-4.98,2.23-4.98,4.98v40.04c0,2.75,2.23,4.98,4.98,4.98h25.04c2.75,0,4.98-2.23,4.98-4.98v-40.04c0-2.75-2.23-4.98-4.98-4.98ZM224.65,204.37c0,1.84-.51,3.13-1.52,3.9s-3.19,1.12-6.52,1.06v10.31h-6v-28.01h6.46c2.56,0,4.47.33,5.71.98,1.24.65,1.87,1.98,1.87,3.98v7.77Z"/>
        <path class="cls-1" d="M216.6,195.64v9.69c1.37,0,2.05-.49,2.05-1.48v-6.72c0-.99-.68-1.48-2.05-1.48Z"/>
        <path class="cls-2"
              d="M222.78,192.61c-1.24-.65-3.15-.98-5.71-.98h-6.46v28.01h6v-10.31c3.33.05,5.51-.3,6.52-1.06s1.52-2.06,1.52-3.9v-7.77c0-2-.62-3.33-1.87-3.98ZM218.65,203.84c0,.99-.68,1.48-2.05,1.48v-9.69c1.37,0,2.05.5,2.05,1.48v6.72Z"/>
    </symbol>
    <symbol id="Q">
        <path class="cls-1"
              d="M270.02,180h-25.04c-2.75,0-4.98,2.23-4.98,4.98v40.04c0,2.75,2.23,4.98,4.98,4.98h25.04c2.75,0,4.98-2.23,4.98-4.98v-40.04c0-2.75-2.23-4.98-4.98-4.98ZM264.53,214.82c0,1.95-1.03,3.42-3.09,4.41,0,.44.16.72.47.83.31.11,1.19.17,2.62.17v3.24h-2.44c-2.52,0-3.77-1.19-3.77-3.57-5.23,0-7.84-1.68-7.84-5.04v-18.03c0-3.63,2.36-5.45,7.08-5.45s6.98,1.8,6.98,5.41v18.03Z"/>
        <path class="cls-1"
              d="M257.51,195.23c-.7,0-1.04.28-1.04.84v19.08c0,.56.35.84,1.04.84s1.03-.28,1.03-.84v-19.08c0-.56-.34-.84-1.03-.84Z"/>
        <path class="cls-2"
              d="M257.55,191.38c-4.72,0-7.08,1.82-7.08,5.45v18.03c0,3.36,2.61,5.04,7.84,5.04,0,2.38,1.26,3.57,3.77,3.57h2.44v-3.24c-1.43,0-2.31-.06-2.62-.17-.31-.11-.47-.39-.47-.83,2.06-.99,3.09-2.46,3.09-4.41v-18.03c0-3.61-2.33-5.41-6.98-5.41ZM258.54,215.15c0,.56-.34.84-1.03.84s-1.04-.28-1.04-.84v-19.08c0-.56.35-.84,1.04-.84s1.03.28,1.03.84v19.08Z"/>
    </symbol>
    <symbol id="R">
        <path class="cls-1" d="M296.4,195.23v7.58c1.26,0,1.89-.5,1.89-1.49v-4.62c0-.98-.63-1.47-1.89-1.47Z"/>
        <path class="cls-1"
              d="M310.02,180h-25.04c-2.75,0-4.98,2.23-4.98,4.98v40.04c0,2.75,2.23,4.98,4.98,4.98h25.04c2.75,0,4.98-2.23,4.98-4.98v-40.04c0-2.75-2.23-4.98-4.98-4.98ZM299.21,219.68c-.66-.79-1-3.05-1-6.76v-.04l.04-1.68c.04-2.33.06-3.52.06-3.57,0-.95-.64-1.43-1.91-1.43v13.44h-6.15v-28.01h7.6c1.73,0,3.24.4,4.52,1.19,1.28.79,1.92,2.05,1.92,3.77v3.36c0,2.17-1.27,3.65-3.81,4.41,2.55.6,3.83,2.14,3.83,4.63l-.1,3.07c0,4.48.38,7.02,1.15,7.62h-6.15Z"/>
        <path class="cls-2"
              d="M304.31,209c0-2.49-1.28-4.03-3.83-4.63,2.54-.77,3.81-2.24,3.81-4.41v-3.36c0-1.72-.64-2.98-1.92-3.77-1.28-.79-2.79-1.19-4.52-1.19h-7.6v28.01h6.15v-13.44c1.28,0,1.91.48,1.91,1.43,0,.05-.02,1.24-.06,3.57l-.04,1.68v.04c0,3.71.33,5.96,1,6.76h6.15c-.77-.6-1.15-3.14-1.15-7.62l.1-3.07ZM298.29,201.32c0,.99-.63,1.49-1.89,1.49v-7.58c1.26,0,1.89.49,1.89,1.47v4.62Z"/>
    </symbol>
    <symbol id="S">
        <path class="cls-1"
              d="M350.02,180h-25.04c-2.75,0-4.98,2.23-4.98,4.98v40.04c0,2.75,2.23,4.98,4.98,4.98h25.04c2.75,0,4.98-2.23,4.98-4.98v-40.04c0-2.75-2.23-4.98-4.98-4.98ZM344.53,214.31c0,3.72-2.38,5.59-7.14,5.59s-6.88-1.69-6.88-5.08v-6.39h5.59v6.43c0,.64.39.96,1.16.96s1.12-.32,1.12-.96v-3.32c0-1.02-.68-2.21-2.03-3.57-2.62-2.54-4.25-4.24-4.88-5.12-.64-.87-.96-1.83-.96-2.87v-3.14c0-3.63,2.37-5.45,7.12-5.45,4.25,0,6.38,1.65,6.38,4.96v4.84h-5.59v-5.16c0-.56-.31-.84-.94-.84-.73,0-1.1.54-1.1,1.62l.12,1.82c0,1.04.69,2.25,2.08,3.63,2.57,2.46,4.21,4.18,4.9,5.16s1.05,2.08,1.05,3.32v3.57Z"/>
        <path class="cls-2"
              d="M338.58,202.26c-1.38-1.38-2.08-2.59-2.08-3.63l-.12-1.82c0-1.08.37-1.62,1.1-1.62.62,0,.94.28.94.84v5.16h5.59v-4.84c0-3.31-2.13-4.96-6.38-4.96-4.75,0-7.12,1.82-7.12,5.45v3.14c0,1.04.32,2,.96,2.87.64.87,2.27,2.58,4.88,5.12,1.35,1.37,2.03,2.56,2.03,3.57v3.32c0,.64-.37.96-1.12.96s-1.16-.32-1.16-.96v-6.43h-5.59v6.39c0,3.39,2.29,5.08,6.88,5.08s7.14-1.86,7.14-5.59v-3.57c0-1.24-.35-2.34-1.05-3.32s-2.33-2.7-4.9-5.16Z"/>
    </symbol>
    <symbol id="T">
        <path class="cls-1"
              d="M390.02,180h-25.04c-2.75,0-4.98,2.23-4.98,4.98v40.04c0,2.75,2.23,4.98,4.98,4.98h25.04c2.75,0,4.98-2.23,4.98-4.98v-40.04c0-2.75-2.23-4.98-4.98-4.98ZM384.01,195.28h-3.44v24.36h-6.15v-24.36h-3.44v-3.65h13.03v3.65Z"/>
        <polygon class="cls-2"
                 points="370.99 195.28 374.42 195.28 374.42 219.64 380.58 219.64 380.58 195.28 384.01 195.28 384.01 191.63 370.99 191.63 370.99 195.28"/>
    </symbol>
    <symbol id="A">
        <path class="cls-1"
              d="M30.02,120H4.98c-2.75,0-4.98,2.23-4.98,4.98v40.04c0,2.75,2.23,4.98,4.98,4.98h25.04c2.75,0,4.98-2.23,4.98-4.98v-40.04c0-2.75-2.23-4.98-4.98-4.98ZM19.91,159.64l-1.04-7.52h-2.73l-1.05,7.52h-6.1l4.6-28.01h7.8l4.61,28.01h-6.1Z"/>
        <polygon class="cls-1" points="16.65 148.23 18.38 148.23 17.49 139.87 16.65 148.23"/>
        <path class="cls-2"
              d="M13.6,131.63l-4.6,28.01h6.1l1.05-7.52h2.73l1.04,7.52h6.1l-4.61-28.01h-7.8ZM16.65,148.23l.84-8.36.89,8.36h-1.72Z"/>
    </symbol>
    <symbol id="B">
        <path class="cls-1" d="M56.72,146.01v10.04c1.15,0,1.72-.49,1.72-1.48v-7.09c0-.98-.57-1.46-1.72-1.46Z"/>
        <path class="cls-1" d="M56.72,135.23v7.73c1.15,0,1.72-.5,1.72-1.49v-4.78c0-.98-.57-1.47-1.72-1.47Z"/>
        <path class="cls-1"
              d="M70.02,120h-25.04c-2.75,0-4.98,2.23-4.98,4.98v40.04c0,2.75,2.23,4.98,4.98,4.98h25.04c2.75,0,4.98-2.23,4.98-4.98v-40.04c0-2.75-2.23-4.98-4.98-4.98ZM64.43,154.11c0,1.85-.6,3.23-1.81,4.15-1.2.92-2.64,1.38-4.31,1.38h-7.75v-28.01h7.25c1.73,0,3.24.39,4.51,1.18,1.28.79,1.91,2.05,1.91,3.78v3.89c0,1.97-1.2,3.35-3.59,4.16,2.53.62,3.79,1.97,3.79,4.04v5.43Z"/>
        <path class="cls-2"
              d="M60.64,144.64c2.4-.81,3.59-2.19,3.59-4.16v-3.89c0-1.73-.64-2.99-1.91-3.78-1.28-.79-2.78-1.18-4.51-1.18h-7.25v28.01h7.75c1.67,0,3.1-.46,4.31-1.38,1.2-.92,1.81-2.3,1.81-4.15v-5.43c0-2.07-1.26-3.42-3.79-4.04ZM58.44,154.56c0,.99-.57,1.48-1.72,1.48v-10.04c1.15,0,1.72.49,1.72,1.46v7.09ZM58.44,141.47c0,.99-.57,1.49-1.72,1.49v-7.73c1.15,0,1.72.49,1.72,1.47v4.78Z"/>
    </symbol>
    <symbol id="C">
        <path class="cls-1"
              d="M110.02,120h-25.04c-2.75,0-4.98,2.23-4.98,4.98v40.04c0,2.75,2.23,4.98,4.98,4.98h25.04c2.75,0,4.98-2.23,4.98-4.98v-40.04c0-2.75-2.23-4.98-4.98-4.98ZM104.24,141.42h-5.59v-5.55c0-.46-.28-.68-.85-.68s-.89.23-.89.68v19.43c0,.46.3.68.89.68s.85-.23.85-.68v-6.91h5.59v7.11c0,1.33-.65,2.39-1.95,3.19-1.3.8-2.77,1.2-4.41,1.2-4.74,0-7.11-1.68-7.11-5.04v-18.03c0-3.63,2.37-5.45,7.11-5.45,4.24,0,6.37,1.65,6.37,4.96v5.08Z"/>
        <path class="cls-2"
              d="M97.87,131.38c-4.74,0-7.11,1.82-7.11,5.45v18.03c0,3.36,2.37,5.04,7.11,5.04,1.64,0,3.11-.4,4.41-1.2,1.3-.8,1.95-1.87,1.95-3.19v-7.11h-5.59v6.91c0,.46-.28.68-.85.68s-.89-.23-.89-.68v-19.43c0-.46.3-.68.89-.68s.85.23.85.68v5.55h5.59v-5.08c0-3.31-2.12-4.96-6.37-4.96Z"/>
    </symbol>
    <symbol id="D">
        <path class="cls-1" d="M136.6,135.23v20.82c1.17,0,1.76-.5,1.76-1.49v-17.87c0-.98-.59-1.47-1.76-1.47Z"/>
        <path class="cls-1"
              d="M150.02,120h-25.04c-2.75,0-4.98,2.23-4.98,4.98v40.04c0,2.75,2.23,4.98,4.98,4.98h25.04c2.75,0,4.98-2.23,4.98-4.98v-40.04c0-2.75-2.23-4.98-4.98-4.98ZM144.55,154.11c0,1.75-.61,3.1-1.83,4.07-1.22.97-2.74,1.46-4.55,1.46h-7.72v-28.01h7.68c1.67,0,3.16.45,4.47,1.36,1.31.91,1.96,2.29,1.96,4.17v16.95Z"/>
        <path class="cls-2"
              d="M142.59,132.99c-1.31-.9-2.79-1.36-4.47-1.36h-7.68v28.01h7.72c1.81,0,3.33-.48,4.55-1.46,1.22-.97,1.83-2.33,1.83-4.07v-16.95c0-1.88-.65-3.26-1.96-4.17ZM138.36,154.56c0,.99-.59,1.49-1.76,1.49v-20.82c1.17,0,1.76.49,1.76,1.47v17.87Z"/>
    </symbol>
    <symbol id="E">
        <path class="cls-1"
              d="M190.02,120h-25.04c-2.75,0-4.98,2.23-4.98,4.98v40.04c0,2.75,2.23,4.98,4.98,4.98h25.04c2.75,0,4.98-2.23,4.98-4.98v-40.04c0-2.75-2.23-4.98-4.98-4.98ZM183.69,159.64h-12.03v-28.01h11.95v3.59h-5.8v7.58h5.23v3.4h-5.23v9.84h5.88v3.59Z"/>
        <polygon class="cls-2"
                 points="177.81 146.2 183.05 146.2 183.05 142.8 177.81 142.8 177.81 135.23 183.61 135.23 183.61 131.63 171.66 131.63 171.66 159.64 183.69 159.64 183.69 156.05 177.81 156.05 177.81 146.2"/>
    </symbol>
    <symbol id="F">
        <path class="cls-1"
              d="M230.02,120h-25.04c-2.75,0-4.98,2.23-4.98,4.98v40.04c0,2.75,2.23,4.98,4.98,4.98h25.04c2.75,0,4.98-2.23,4.98-4.98v-40.04c0-2.75-2.23-4.98-4.98-4.98ZM223.45,135.23h-5.37v7.58h4.8v3.4h-4.8v13.44h-6.15v-28.01h11.52v3.59Z"/>
        <polygon class="cls-2"
                 points="211.92 159.64 218.08 159.64 218.08 146.2 222.88 146.2 222.88 142.8 218.08 142.8 218.08 135.23 223.45 135.23 223.45 131.63 211.92 131.63 211.92 159.64"/>
    </symbol>
    <symbol id="G">
        <path class="cls-1"
              d="M270.02,120h-25.04c-2.75,0-4.98,2.23-4.98,4.98v40.04c0,2.75,2.23,4.98,4.98,4.98h25.04c2.75,0,4.98-2.23,4.98-4.98v-40.04c0-2.75-2.23-4.98-4.98-4.98ZM264.28,141.53h-5.59v-5.66c0-.46-.3-.68-.91-.68s-.91.23-.91.68v19.43c0,.46.3.68.91.68s.91-.23.91-.68v-5.23h-1.25v-4.3h6.84v13.87h-2.95l-.8-1.54c-1.35,1.2-2.79,1.8-4.3,1.8s-2.76-.38-3.86-1.14c-1.1-.76-1.65-1.98-1.65-3.64v-18.28c0-3.63,2.32-5.45,6.95-5.45s6.6,1.65,6.6,4.96v5.2Z"/>
        <path class="cls-2"
              d="M257.68,131.38c-4.64,0-6.95,1.82-6.95,5.45v18.28c0,1.67.55,2.88,1.65,3.64,1.1.76,2.39,1.14,3.86,1.14s2.94-.6,4.3-1.8l.8,1.54h2.95v-13.87h-6.84v4.3h1.25v5.23c0,.46-.3.68-.91.68s-.91-.23-.91-.68v-19.43c0-.46.3-.68.91-.68s.91.23.91.68v5.66h5.59v-5.2c0-3.31-2.2-4.96-6.6-4.96Z"/>
    </symbol>
    <symbol id="H">
        <path class="cls-1"
              d="M310.02,120h-25.04c-2.75,0-4.98,2.23-4.98,4.98v40.04c0,2.75,2.23,4.98,4.98,4.98h25.04c2.75,0,4.98-2.23,4.98-4.98v-40.04c0-2.75-2.23-4.98-4.98-4.98ZM304.51,159.64h-6.15v-13.44h-1.72v13.44h-6.15v-28.01h6.15v11.17h1.72v-11.17h6.15v28.01Z"/>
        <polygon class="cls-2"
                 points="298.36 142.8 296.64 142.8 296.64 131.63 290.49 131.63 290.49 159.64 296.64 159.64 296.64 146.2 298.36 146.2 298.36 159.64 304.51 159.64 304.51 131.63 298.36 131.63 298.36 142.8"/>
    </symbol>
    <symbol id="I">
        <path class="cls-1"
              d="M350.02,120h-25.04c-2.75,0-4.98,2.23-4.98,4.98v40.04c0,2.75,2.23,4.98,4.98,4.98h25.04c2.75,0,4.98-2.23,4.98-4.98v-40.04c0-2.75-2.23-4.98-4.98-4.98ZM340.6,159.64h-6.15v-28.01h6.15v28.01Z"/>
        <rect class="cls-2" x="334.44" y="131.63" width="6.15" height="28.01"/>
    </symbol>
    <symbol id="J">
        <path class="cls-1"
              d="M390.02,120h-25.04c-2.75,0-4.98,2.23-4.98,4.98v40.04c0,2.75,2.23,4.98,4.98,4.98h25.04c2.75,0,4.98-2.23,4.98-4.98v-40.04c0-2.75-2.23-4.98-4.98-4.98ZM384.17,154.85c0,3.36-2.32,5.04-6.97,5.04-1.65,0-3.12-.4-4.4-1.21-1.28-.81-1.92-1.87-1.92-3.18v-7.11h5.43v6.91c0,.46.29.68.86.68s.86-.23.86-.68v-23.67h6.15v23.22Z"/>
        <path class="cls-2"
              d="M378.02,155.3c0,.46-.29.68-.86.68s-.86-.23-.86-.68v-6.91h-5.43v7.11c0,1.32.64,2.38,1.92,3.18,1.28.81,2.75,1.21,4.4,1.21,4.65,0,6.97-1.68,6.97-5.04v-23.22h-6.15v23.67Z"/>
    </symbol>
    <symbol id=":">
        <path class="cls-1"
              d="M30.02,60H4.98c-2.75,0-4.98,2.23-4.98,4.98v40.04c0,2.75,2.23,4.98,4.98,4.98h25.04c2.75,0,4.98-2.23,4.98-4.98v-40.04c0-2.75-2.23-4.98-4.98-4.98ZM20.07,93.68h-5.08v-4.08h5.08v4.08ZM20.07,80.2h-5.08v-4.08h5.08v4.08Z"/>
        <rect class="cls-2" x="14.99" y="76.12" width="5.08" height="4.08"/>
        <rect class="cls-2" x="14.99" y="89.6" width="5.08" height="4.08"/>
    </symbol>
    <symbol id=";">
        <path class="cls-1"
              d="M70.02,60h-25.04c-2.75,0-4.98,2.23-4.98,4.98v40.04c0,2.75,2.23,4.98,4.98,4.98h25.04c2.75,0,4.98-2.23,4.98-4.98v-40.04c0-2.75-2.23-4.98-4.98-4.98ZM60.03,92.35c0,1.69-1.07,3.24-3.2,4.65l-1.11-.92c.87-.87,1.35-1.69,1.43-2.44h-2.19v-4.08h5.08v2.79ZM60.07,80.2h-5.08v-4.08h5.08v4.08Z"/>
        <path class="cls-2"
              d="M54.95,93.64h2.19c-.08.75-.55,1.57-1.43,2.44l1.11.92c2.14-1.41,3.2-2.96,3.2-4.65v-2.79h-5.08v4.08Z"/>
        <rect class="cls-2" x="54.99" y="76.12" width="5.08" height="4.08"/>
    </symbol>
    <symbol id="/">
        <path class="cls-1"
              d="M110.02,60h-25.04c-2.75,0-4.98,2.23-4.98,4.98v40.04c0,2.75,2.23,4.98,4.98,4.98h25.04c2.75,0,4.98-2.23,4.98-4.98v-40.04c0-2.75-2.23-4.98-4.98-4.98ZM94.69,99.64h-3.32l8.94-28.01h3.32l-8.94,28.01Z"/>
        <polygon class="cls-2" points="91.37 99.64 94.69 99.64 103.63 71.63 100.31 71.63 91.37 99.64"/>
    </symbol>
    <symbol id="\">
        <path class="cls-1"
              d="M150.02,60h-25.04c-2.75,0-4.98,2.23-4.98,4.98v40.04c0,2.75,2.23,4.98,4.98,4.98h25.04c2.75,0,4.98-2.23,4.98-4.98v-40.04c0-2.75-2.23-4.98-4.98-4.98ZM140.35,99.64l-8.98-28.01h3.32l8.98,28.01h-3.32Z"/>
        <polygon class="cls-2" points="131.37 71.63 140.35 99.64 143.67 99.64 134.69 71.63 131.37 71.63"/>
    </symbol>
    <symbol id="-">
        <path class="cls-1"
              d="M190.02,60h-25.04c-2.75,0-4.98,2.23-4.98,4.98v40.04c0,2.75,2.23,4.98,4.98,4.98h25.04c2.75,0,4.98-2.23,4.98-4.98v-40.04c0-2.75-2.23-4.98-4.98-4.98ZM181.67,86.68h-7.95v-3.14h7.95v3.14Z"/>
        <rect class="cls-2" x="173.72" y="83.53" width="7.95" height="3.14"/>
    </symbol>
    <symbol id="_">
        <path class="cls-1"
              d="M230.02,60h-25.04c-2.75,0-4.98,2.23-4.98,4.98v40.04c0,2.75,2.23,4.98,4.98,4.98h25.04c2.75,0,4.98-2.23,4.98-4.98v-40.04c0-2.75-2.23-4.98-4.98-4.98ZM225.02,99.64h-14.96v-3.14h14.96v3.14Z"/>
        <rect class="cls-2" x="210.06" y="96.5" width="14.96" height="3.14"/>
    </symbol>
    <symbol id="+">
        <path class="cls-1"
              d="M270.02,60h-25.04c-2.75,0-4.98,2.23-4.98,4.98v40.04c0,2.75,2.23,4.98,4.98,4.98h25.04c2.75,0,4.98-2.23,4.98-4.98v-40.04c0-2.75-2.23-4.98-4.98-4.98ZM264.49,87.19h-5.45v5.45h-3.14v-5.45h-5.45v-3.14h5.45v-5.45h3.14v5.45h5.45v3.14Z"/>
        <polygon class="cls-2"
                 points="259.04 78.6 255.9 78.6 255.9 84.05 250.45 84.05 250.45 87.19 255.9 87.19 255.9 92.64 259.04 92.64 259.04 87.19 264.49 87.19 264.49 84.05 259.04 84.05 259.04 78.6"/>
    </symbol>
    <symbol id="=">
        <path class="cls-1"
              d="M310.02,60h-25.04c-2.75,0-4.98,2.23-4.98,4.98v40.04c0,2.75,2.23,4.98,4.98,4.98h25.04c2.75,0,4.98-2.23,4.98-4.98v-40.04c0-2.75-2.23-4.98-4.98-4.98ZM304.51,90.34h-14.02v-3.14h14.02v3.14ZM304.51,84.03h-14.02v-3.14h14.02v3.14Z"/>
        <rect class="cls-2" x="290.49" y="87.19" width="14.02" height="3.14"/>
        <rect class="cls-2" x="290.49" y="80.88" width="14.02" height="3.14"/>
    </symbol>
    <symbol id="!">
        <path class="cls-1"
              d="M350.02,60h-25.04c-2.75,0-4.98,2.23-4.98,4.98v40.04c0,2.75,2.23,4.98,4.98,4.98h25.04c2.75,0,4.98-2.23,4.98-4.98v-40.04c0-2.75-2.23-4.98-4.98-4.98ZM340.29,99.64h-5.57v-4.08h5.57v4.08ZM340.29,94.33h-5.57v-22.7h5.57v22.7Z"/>
        <rect class="cls-2" x="334.73" y="71.63" width="5.57" height="22.7"/>
        <rect class="cls-2" x="334.73" y="95.56" width="5.57" height="4.08"/>
    </symbol>
    <symbol id="?">
        <path class="cls-1"
              d="M390.02,60h-25.04c-2.75,0-4.98,2.23-4.98,4.98v40.04c0,2.75,2.23,4.98,4.98,4.98h25.04c2.75,0,4.98-2.23,4.98-4.98v-40.04c0-2.75-2.23-4.98-4.98-4.98ZM378.96,99.64h-5.57v-4.08h5.57v4.08ZM384.05,80.48c0,1.17-.19,2.17-.57,3.01-.38.83-1.25,2.04-2.62,3.61-.91,1.05-1.45,1.99-1.63,2.81-.18.82-.27,2.32-.27,4.49h-5.57v-.76c0-1.97.12-3.43.36-4.38.24-.96,1.1-2.35,2.57-4.19,1.29-1.6,1.93-2.92,1.93-3.95v-5.04c0-.56-.3-.84-.91-.84s-.91.28-.91.84v7.15h-5.37v-6.84c0-3.31,2.1-4.96,6.31-4.96,2.11,0,3.75.36,4.92,1.09,1.17.73,1.76,2.18,1.76,4.36v3.59Z"/>
        <path class="cls-2"
              d="M382.29,72.53c-1.17-.73-2.81-1.09-4.92-1.09-4.21,0-6.31,1.65-6.31,4.96v6.84h5.37v-7.15c0-.56.3-.84.91-.84s.91.28.91.84v5.04c0,1.03-.64,2.34-1.93,3.95-1.47,1.84-2.33,3.23-2.57,4.19-.24.96-.36,2.42-.36,4.38v.76h5.57c0-2.17.09-3.67.27-4.49.18-.82.73-1.76,1.63-2.81,1.36-1.58,2.23-2.78,2.62-3.61.38-.83.57-1.84.57-3.01v-3.59c0-2.17-.59-3.63-1.76-4.36Z"/>
        <rect class="cls-2" x="373.39" y="95.56" width="5.57" height="4.08"/>
    </symbol>
    <symbol id="0" viewBox="0 0 35 50">
        <path class="cls-1"
              d="M17.53,15.23c-.7,0-1.05.28-1.05.84v19.08c0,.56.35.84,1.05.84.66,0,1-.28,1-.84v-19.08c0-.56-.33-.84-1-.84Z"/>
        <path class="cls-1"
              d="M30.02,0H4.98C2.23,0,0,2.23,0,4.98v40.04c0,2.75,2.23,4.98,4.98,4.98h25.04c2.75,0,4.98-2.23,4.98-4.98V4.98c0-2.75-2.23-4.98-4.98-4.98ZM24.68,34.82c0,1.61-.67,2.86-2,3.75-1.33.89-3.05,1.33-5.15,1.33s-3.9-.44-5.22-1.31c-1.32-.87-1.98-2.12-1.98-3.73v-18.03c0-3.63,2.42-5.45,7.25-5.45s7.11,1.8,7.11,5.41v18.03Z"/>
        <path class="cls-2"
              d="M17.57,11.38c-4.83,0-7.25,1.82-7.25,5.45v18.03c0,1.61.66,2.86,1.98,3.73,1.32.87,3.06,1.31,5.22,1.31s3.81-.44,5.15-1.33c1.33-.89,2-2.14,2-3.75v-18.03c0-3.61-2.37-5.41-7.11-5.41ZM18.53,35.15c0,.56-.33.84-1,.84-.7,0-1.05-.28-1.05-.84v-19.08c0-.56.35-.84,1.05-.84.66,0,1,.28,1,.84v19.08Z"/>
    </symbol>
    <symbol id="1" viewBox="35 50 70 50">
        <path class="cls-1"
              d="M70.02,0h-25.04c-2.75,0-4.98,2.23-4.98,4.98v40.04c0,2.75,2.23,4.98,4.98,4.98h25.04c2.75,0,4.98-2.23,4.98-4.98V4.98c0-2.75-2.23-4.98-4.98-4.98ZM61.7,39.64h-6.15v-20.53h-2.34v-4.08c.89,0,1.65-.38,2.26-1.15.61-.77.92-1.52.92-2.25h5.31v28.01Z"/>
        <path class="cls-2"
              d="M55.46,13.88c-.61.77-1.37,1.15-2.26,1.15v4.08h2.34v20.53h6.15V11.63h-5.31c0,.73-.31,1.48-.92,2.25Z"/>
    </symbol>
    <symbol id="2">
        <path class="cls-1"
              d="M110.02,0h-25.04c-2.75,0-4.98,2.23-4.98,4.98v40.04c0,2.75,2.23,4.98,4.98,4.98h25.04c2.75,0,4.98-2.23,4.98-4.98V4.98c0-2.75-2.23-4.98-4.98-4.98ZM104.53,36.05v3.59h-14.04v-3.71l6.91-12.7c.75-1.38,1.13-3.27,1.13-5.66,0-1.25-.42-1.88-1.25-1.88s-1.29.39-1.29,1.17v4.8h-5.51v-4.88c0-3.61,2.32-5.41,6.95-5.41,2.86,0,4.76.66,5.69,1.98.93,1.32,1.4,3.49,1.4,6.51,0,1.19-.2,2.16-.61,2.93l-6.92,13.24h7.53Z"/>
        <path class="cls-2"
              d="M104.53,19.87c0-3.02-.47-5.19-1.4-6.51-.93-1.32-2.83-1.98-5.69-1.98-4.64,0-6.95,1.8-6.95,5.41v4.88h5.51v-4.8c0-.78.43-1.17,1.29-1.17s1.25.62,1.25,1.88c0,2.4-.38,4.28-1.13,5.66l-6.91,12.7v3.71h14.04v-3.59h-7.53l6.92-13.24c.4-.77.61-1.74.61-2.93Z"/>
    </symbol>
    <symbol id="3">
        <path class="cls-1"
              d="M150.02,0h-25.04c-2.75,0-4.98,2.23-4.98,4.98v40.04c0,2.75,2.23,4.98,4.98,4.98h25.04c2.75,0,4.98-2.23,4.98-4.98V4.98c0-2.75-2.23-4.98-4.98-4.98ZM144.49,34.05c0,3.89-2.31,5.84-6.93,5.84s-7.03-1.77-7.03-5.31v-6.68h5.64v6.64c0,.69.37,1.04,1.11,1.04s1.11-.34,1.11-1.04v-6.48c0-.74-.19-1.25-.56-1.51-.37-.27-1.06-.4-2.08-.4v-3.16c1.76,0,2.64-.55,2.64-1.64v-4.96c0-.56-.37-.84-1.11-.84s-1.15.28-1.15.84v5.16h-5.45v-5.2c0-3.31,2.29-4.96,6.87-4.96,1.83,0,3.43.4,4.8,1.19,1.37.79,2.05,2.05,2.05,3.77v3.85c0,2.24-1.06,3.74-3.18,4.51,2.19.64,3.28,2.37,3.28,5.2v4.16Z"/>
        <path class="cls-2"
              d="M141.21,24.7c2.12-.77,3.18-2.27,3.18-4.51v-3.85c0-1.72-.68-2.98-2.05-3.77-1.37-.79-2.96-1.19-4.8-1.19-4.58,0-6.87,1.65-6.87,4.96v5.2h5.45v-5.16c0-.56.38-.84,1.15-.84s1.11.28,1.11.84v4.96c0,1.09-.88,1.64-2.64,1.64v3.16c1.02,0,1.71.13,2.08.4.37.27.56.77.56,1.51v6.48c0,.69-.37,1.04-1.11,1.04s-1.11-.34-1.11-1.04v-6.64h-5.64v6.68c0,3.54,2.34,5.31,7.03,5.31s6.93-1.95,6.93-5.84v-4.16c0-2.83-1.09-4.56-3.28-5.2Z"/>
    </symbol>
    <symbol id="4">
        <path class="cls-1"
              d="M190.02,0h-25.04c-2.75,0-4.98,2.23-4.98,4.98v40.04c0,2.75,2.23,4.98,4.98,4.98h25.04c2.75,0,4.98-2.23,4.98-4.98V4.98c0-2.75-2.23-4.98-4.98-4.98ZM186.2,36.05h-3.05v3.59h-6v-3.59h-8.32v-3.96l6.04-20.45h8.28v20.21h3.05v4.2Z"/>
        <polygon class="cls-1" points="177.16 31.85 177.16 20.79 174.36 31.85 177.16 31.85"/>
        <path class="cls-2"
              d="M183.15,11.63h-8.28l-6.04,20.45v3.96h8.32v3.59h6v-3.59h3.05v-4.2h-3.05V11.63ZM177.16,31.85h-2.79l2.79-11.05v11.05Z"/>
    </symbol>
    <symbol id="5">
        <path class="cls-1"
              d="M230.02,0h-25.04c-2.75,0-4.98,2.23-4.98,4.98v40.04c0,2.75,2.23,4.98,4.98,4.98h25.04c2.75,0,4.98-2.23,4.98-4.98V4.98c0-2.75-2.23-4.98-4.98-4.98ZM219.69,20.71c3.23,0,4.84,1.39,4.84,4.16v9.94c0,1.61-.64,2.86-1.93,3.75-1.29.89-2.98,1.33-5.08,1.33-4.69,0-7.03-1.68-7.03-5.04v-6.97h6v7.19c0,.61.34.92,1.04.92s1.02-.31,1.02-.92v-9.32c0-.66-.38-1-1.13-1-.69,0-1.05.57-1.08,1.72l-5.76-.16.31-14.69h13.81l-.96,4.24h-6.98l-.26,5.76c.61-.61,1.68-.92,3.2-.92Z"/>
        <path class="cls-2"
              d="M223.73,15.87l.96-4.24h-13.81l-.31,14.69,5.76.16c.03-1.15.38-1.72,1.08-1.72.76,0,1.13.33,1.13,1v9.32c0,.61-.34.92-1.02.92s-1.04-.31-1.04-.92v-7.19h-6v6.97c0,3.36,2.34,5.04,7.03,5.04,2.1,0,3.79-.44,5.08-1.33,1.29-.89,1.93-2.14,1.93-3.75v-9.94c0-2.77-1.61-4.16-4.84-4.16-1.52,0-2.59.31-3.2.92l.26-5.76h6.98Z"/>
    </symbol>
    <symbol id="6">
        <path class="cls-1"
              d="M270.02,0h-25.04c-2.75,0-4.98,2.23-4.98,4.98v40.04c0,2.75,2.23,4.98,4.98,4.98h25.04c2.75,0,4.98-2.23,4.98-4.98V4.98c0-2.75-2.23-4.98-4.98-4.98ZM264.53,19.62h-6l.12-2.27c0-1.45-.38-2.17-1.13-2.17-.69,0-1.04.31-1.04.92v5.47c.46-.61,1.43-.92,2.93-.92s2.71.37,3.67,1.11c.96.74,1.45,1.76,1.45,3.05v10c0,1.63-.65,2.88-1.94,3.76-1.3.88-2.99,1.32-5.07,1.32-4.69,0-7.03-1.68-7.03-5.04v-18.03c0-3.63,2.36-5.45,7.07-5.45s6.97,1.8,6.97,5.41v2.83Z"/>
        <path class="cls-1"
              d="M256.48,35.07c0,.61.34.92,1.04.92s1.02-.31,1.02-.92v-9.16c0-.62-.34-.94-1.02-.94s-1.04.31-1.04.94v9.16Z"/>
        <path class="cls-2"
              d="M257.56,11.38c-4.71,0-7.07,1.82-7.07,5.45v18.03c0,3.36,2.34,5.04,7.03,5.04,2.08,0,3.77-.44,5.07-1.32,1.3-.88,1.94-2.13,1.94-3.76v-10c0-1.29-.48-2.3-1.45-3.05-.96-.74-2.19-1.11-3.67-1.11s-2.47.31-2.93.92v-5.47c0-.61.34-.92,1.04-.92.75,0,1.13.72,1.13,2.17l-.12,2.27h6v-2.83c0-3.61-2.32-5.41-6.97-5.41ZM257.52,24.97c.68,0,1.02.31,1.02.94v9.16c0,.61-.34.92-1.02.92s-1.04-.31-1.04-.92v-9.16c0-.62.34-.94,1.04-.94Z"/>
    </symbol>
    <symbol id="7">
        <path class="cls-1"
              d="M310.02,0h-25.04c-2.75,0-4.98,2.23-4.98,4.98v40.04c0,2.75,2.23,4.98,4.98,4.98h25.04c2.75,0,4.98-2.23,4.98-4.98V4.98c0-2.75-2.23-4.98-4.98-4.98ZM304.71,15.64l-7.69,24h-6.64l7.7-24.08h-7.25v-3.93h13.89v4Z"/>
        <polygon class="cls-2"
                 points="290.82 15.56 298.07 15.56 290.37 39.64 297.01 39.64 304.71 15.64 304.71 11.63 290.82 11.63 290.82 15.56"/>
    </symbol>
    <symbol id="8">
        <path class="cls-1"
              d="M337.52,26.14c-.69,0-1.04.28-1.04.84v8.16c0,.56.34.84,1.04.84s1.02-.28,1.02-.84v-8.16c0-.56-.34-.84-1.02-.84Z"/>
        <path class="cls-1"
              d="M337.52,15.23c-.69,0-1.04.28-1.04.84v5.84c0,.56.34.84,1.04.84s1.02-.28,1.02-.84v-5.84c0-.56-.34-.84-1.02-.84Z"/>
        <path class="cls-1"
              d="M350.02,0h-25.04c-2.75,0-4.98,2.23-4.98,4.98v40.04c0,2.75,2.23,4.98,4.98,4.98h25.04c2.75,0,4.98-2.23,4.98-4.98V4.98c0-2.75-2.23-4.98-4.98-4.98ZM344.53,34.58c0,3.54-2.35,5.31-7.05,5.31s-6.99-1.77-6.99-5.31v-5.76c0-2.37,1.08-3.81,3.24-4.32-2.06-.64-3.09-2.38-3.09-5.23v-2.93c0-3.31,2.29-4.96,6.88-4.96,1.84,0,3.44.4,4.8,1.19,1.37.79,2.05,2.05,2.05,3.77v2.93c0,2.85-1.03,4.6-3.09,5.23,2.16.52,3.24,1.96,3.24,4.32v5.76Z"/>
        <path class="cls-2"
              d="M341.29,24.5c2.06-.64,3.09-2.38,3.09-5.23v-2.93c0-1.72-.68-2.98-2.05-3.77-1.37-.79-2.97-1.19-4.8-1.19-4.58,0-6.88,1.65-6.88,4.96v2.93c0,2.85,1.03,4.6,3.09,5.23-2.16.51-3.24,1.95-3.24,4.32v5.76c0,3.54,2.33,5.31,6.99,5.31s7.05-1.77,7.05-5.31v-5.76c0-2.36-1.08-3.8-3.24-4.32ZM338.54,35.15c0,.56-.34.84-1.02.84s-1.04-.28-1.04-.84v-8.16c0-.56.34-.84,1.04-.84s1.02.28,1.02.84v8.16ZM338.54,21.91c0,.56-.34.84-1.02.84s-1.04-.28-1.04-.84v-5.84c0-.56.34-.84,1.04-.84s1.02.28,1.02.84v5.84Z"/>
    </symbol>
    <symbol id="9">
        <path class="cls-1"
              d="M377.53,15.19c-.68,0-1.03.31-1.03.92v6.72c0,.61.34.92,1.03.92s1.01-.31,1.01-.92v-6.72c0-.61-.34-.92-1.01-.92Z"/>
        <path class="cls-1"
              d="M390.02,0h-25.04c-2.75,0-4.98,2.23-4.98,4.98v40.04c0,2.75,2.23,4.98,4.98,4.98h25.04c2.75,0,4.98-2.23,4.98-4.98V4.98c0-2.75-2.23-4.98-4.98-4.98ZM384.53,34.46c0,3.62-2.36,5.43-7.08,5.43s-6.94-1.8-6.94-5.39v-6.56h6v7.13c0,.61.34.92,1.03.92s1.01-.31,1.01-.92v-8.32c-.44.47-1.27.7-2.47.7-1.64,0-2.97-.39-4-1.18-1.03-.79-1.55-1.88-1.55-3.29v-6.52c0-1.63.64-2.88,1.93-3.76,1.29-.88,2.97-1.32,5.05-1.32s3.81.44,5.1,1.31c1.29.87,1.94,2.12,1.94,3.73v18.05Z"/>
        <path class="cls-2"
              d="M382.59,12.69c-1.29-.87-2.99-1.31-5.1-1.31s-3.76.44-5.05,1.32c-1.29.88-1.93,2.13-1.93,3.76v6.52c0,1.41.52,2.5,1.55,3.29,1.03.79,2.37,1.18,4,1.18,1.21,0,2.03-.23,2.47-.7v8.32c0,.61-.34.92-1.01.92s-1.03-.31-1.03-.92v-7.13h-6v6.56c0,3.59,2.31,5.39,6.94,5.39s7.08-1.81,7.08-5.43v-18.05c0-1.61-.65-2.86-1.94-3.73ZM378.54,22.82c0,.61-.34.92-1.01.92s-1.03-.31-1.03-.92v-6.72c0-.61.34-.92,1.03-.92s1.01.31,1.01.92v6.72Z"/>
    </symbol>
</svg>
